<?xml version="1.0" standalone="no"?>
<!DOCTYPE svg PUBLIC "-//W3C//DTD SVG 1.0//EN" "http://www.w3.org/TR/2001/REC-SVG-20010904/DTD/svg10.dtd">
<svg xmlns="http://www.w3.org/2000/svg" xmlns:xlink="http://www.w3.org/1999/xlink" id="body_1" width="667" height="667">
  <style>
    path { fill: white; }
    @media (prefers-color-scheme: dark) { path { fill: white; }
    }
  </style>
<g transform="matrix(1.334 0 0 1.334 0 0)">
	<g transform="matrix(0.1 0 -0 -0.1 0 500)">
        <path d="M2300 3645C 1971 3585 1672 3380 1505 3099C 1445 2998 1389 2862 1365 2760C 1338 2646 1333 2424 1355 2303C 1412 1983 1589 1714 1860 1535C 2210 1303 2645 1278 3025 1468C 3177 1543 3362 1705 3457 1845C 3897 2494 3584 3381 2835 3610C 2674 3660 2459 3673 2300 3645zM2770 3560C 2817 3548 2902 3516 2959 3489C 3268 3343 3479 3084 3562 2752C 3594 2626 3594 2372 3563 2248C 3511 2044 3418 1879 3270 1730C 3129 1587 2962 1491 2769 1440C 2665 1413 2441 1402 2330 1419C 1953 1476 1611 1752 1478 2107C 1433 2229 1419 2303 1413 2453C 1407 2617 1417 2707 1457 2835C 1551 3134 1793 3393 2090 3514C 2235 3573 2340 3590 2525 3586C 2647 3583 2705 3577 2770 3560z" stroke="none" fill="#000000" fill-rule="nonzero" />
        <path d="M2110 3320L2110 3230L2070 3230L2030 3230L2030 2781L2030 2331L2003 2328C 1978 2325 1975 2321 1975 2290L1975 2290L1975 2255L2503 2252L3030 2250L3030 2290C 3030 2328 3028 2330 3000 2330L3000 2330L2970 2330L2970 2780L2970 3230L2930 3230L2890 3230L2890 3320L2890 3410L2500 3410L2110 3410L2110 3320zM2955 2770L2955 2330L2818 2330L2680 2330L2680 2424C 2680 2491 2684 2520 2693 2523C 2702 2526 2700 2539 2685 2576C 2637 2692 2477 2727 2367 2646C 2318 2610 2312 2587 2318 2453L2318 2453L2323 2330L2186 2330L2050 2330L2050 2770L2050 3210L2503 3210L2955 3210L2955 2770zM2620 2425C 2620 2347 2617 2330 2605 2330C 2590 2330 2586 2341 2590 2370C 2591 2377 2589 2408 2585 2437L2585 2437L2579 2490L2499 2490L2420 2490L2420 2410C 2420 2346 2417 2330 2405 2330C 2393 2330 2390 2347 2390 2425L2390 2425L2390 2520L2505 2520L2620 2520L2620 2425zM3008 2288L3005 2265L2500 2265L1995 2265L1992 2288L1989 2310L2500 2310L3011 2310L3008 2288z" stroke="none" fill="#000000" fill-rule="nonzero" />
        <path d="M2785 3127C 2771 3116 2768 3105 2773 3070C 2779 3022 2791 3010 2837 3010C 2893 3010 2900 3017 2900 3075C 2900 3114 2896 3129 2884 3134C 2857 3144 2805 3141 2785 3127z" stroke="none" fill="#000000" fill-rule="nonzero" />
        <path d="M2280 2840C 2273 2836 2270 2810 2272 2779L2272 2779L2275 2725L2331 2722C 2383 2719 2388 2721 2394 2742C 2402 2774 2401 2840 2393 2841C 2359 2846 2288 2845 2280 2840z" stroke="none" fill="#000000" fill-rule="nonzero" />
        <path d="M2778 2839C 2768 2833 2770 2747 2780 2729C 2784 2723 2810 2720 2841 2722L2841 2722L2895 2725L2898 2782L2901 2838L2844 2842C 2813 2843 2784 2842 2778 2839z" stroke="none" fill="#000000" fill-rule="nonzero" />
        <path d="M2110 2530L2110 2400L2195 2400L2280 2400L2280 2530L2280 2660L2195 2660L2110 2660L2110 2530z" stroke="none" fill="#000000" fill-rule="nonzero" />
        <path d="M2727 2654C 2723 2650 2720 2591 2720 2523L2720 2523L2720 2400L2810 2400L2901 2400L2898 2528L2895 2655L2815 2658C 2770 2659 2731 2658 2727 2654z" stroke="none" fill="#000000" fill-rule="nonzero" />
        <path d="M1582 2379C 1566 2344 1538 2284 1520 2246C 1495 2196 1489 2174 1496 2162C 1520 2125 1535 2125 1646 2168C 1706 2191 1768 2214 1784 2220L1784 2220L1814 2231L1793 2252L1772 2272L1666 2231C 1607 2209 1557 2190 1555 2190C 1552 2190 1574 2237 1602 2295L1602 2295L1655 2400L1633 2421L1612 2443L1582 2379z" stroke="none" fill="#000000" fill-rule="nonzero" />
        <path d="M3206 2338C 3197 2326 3190 2312 3190 2308C 3190 2305 3217 2244 3250 2174L3250 2174L3311 2047L3331 2067C 3351 2086 3351 2089 3335 2119C 3320 2149 3320 2152 3338 2178C 3379 2235 3393 2242 3432 2226C 3466 2212 3468 2212 3489 2234L3489 2234L3511 2257L3373 2309C 3297 2337 3232 2360 3228 2360C 3224 2360 3214 2350 3206 2338z" stroke="none" fill="#000000" fill-rule="nonzero" />
        <path d="M1768 2099C 1730 2039 1700 1986 1700 1982C 1700 1978 1739 1951 1787 1921C 1868 1872 1875 1869 1887 1886C 1905 1911 1905 1912 1858 1938C 1834 1950 1805 1969 1792 1978C 1769 1996 1769 1996 1788 2020L1788 2020L1807 2043L1849 2019C 1885 1999 1893 1998 1900 2010C 1915 2034 1912 2038 1870 2062C 1824 2088 1824 2090 1848 2119L1848 2119L1865 2140L1923 2105C 1990 2065 1996 2064 2009 2088C 2017 2103 2006 2113 1934 2158C 1888 2186 1846 2210 1842 2210C 1838 2210 1805 2160 1768 2099z" stroke="none" fill="#000000" fill-rule="nonzero" />
        <path d="M2975 2149C 2937 2127 2903 2107 2901 2105C 2897 2100 3030 1881 3041 1874C 3046 1872 3058 1875 3069 1882C 3089 1894 3089 1895 3065 1936C 3051 1960 3040 1981 3040 1983C 3040 1986 3051 1995 3064 2003C 3086 2018 3090 2017 3135 1989C 3178 1962 3186 1960 3211 1971C 3227 1977 3240 1985 3240 1989C 3240 1992 3218 2008 3190 2023L3190 2023L3141 2051L3147 2095C 3152 2133 3149 2142 3127 2164C 3091 2200 3057 2197 2975 2149z" stroke="none" fill="#000000" fill-rule="nonzero" />
        <path d="M2050 2038C 2044 2015 2027 1958 2014 1913C 1987 1826 1988 1815 2019 1807C 2036 1803 2041 1813 2061 1886C 2074 1932 2087 1970 2090 1970C 2093 1970 2113 1923 2135 1866C 2168 1780 2179 1761 2198 1757C 2211 1755 2223 1758 2226 1764C 2237 1795 2299 2014 2297 2016C 2296 2017 2283 2021 2267 2025C 2245 2031 2240 2029 2240 2014C 2240 1993 2207 1884 2199 1875C 2196 1872 2176 1914 2156 1968C 2135 2021 2117 2066 2116 2067C 2116 2068 2103 2071 2088 2075C 2063 2081 2060 2079 2050 2038z" stroke="none" fill="#000000" fill-rule="nonzero" />
        <path d="M2818 2073C 2796 2067 2796 2065 2820 1978C 2845 1888 2845 1868 2822 1847C 2799 1826 2747 1825 2730 1845C 2723 1853 2707 1897 2694 1941C 2681 1986 2668 2025 2666 2027C 2663 2030 2652 2029 2640 2025C 2615 2017 2617 1995 2650 1886C 2672 1815 2702 1782 2752 1774C 2828 1761 2896 1819 2894 1895C 2894 1939 2853 2081 2842 2079C 2838 2078 2827 2076 2818 2073z" stroke="none" fill="#000000" fill-rule="nonzero" />
        <path d="M2340 1985C 2340 1962 2344 1960 2385 1960L2385 1960L2430 1960L2430 1844L2430 1729L2458 1732L2485 1735L2488 1848L2491 1960L2535 1960C 2576 1960 2580 1962 2580 1985L2580 1985L2580 2010L2460 2010L2340 2010L2340 1985z" stroke="none" fill="#000000" fill-rule="nonzero" />
	</g>
</g>
</svg>